<svg width="32" height="32" viewBox="0 0 32 32" fill="none" xmlns="http://www.w3.org/2000/svg">
<g clip-path="url(#clip0_4_155)">
<path d="M27.3142 27.3145C33.5628 21.066 33.5628 10.935 27.3142 4.68645C21.0657 -1.56211 10.9347 -1.56211 4.68618 4.68645C-1.56239 10.935 -1.56239 21.066 4.68618 27.3145C10.9347 33.5631 21.0657 33.5631 27.3142 27.3145Z" fill="#A9BECE"/>
<path d="M27.0249 27.0252C33.1137 20.9364 33.1137 11.0646 27.0249 4.97579C20.9361 -1.11298 11.0643 -1.11298 4.97552 4.97579C-1.11325 11.0646 -1.11325 20.9364 4.97552 27.0252C11.0643 33.114 20.9361 33.114 27.0249 27.0252Z" fill="#A9BECE"/>
<g style="mix-blend-mode:soft-light">
<path d="M27.0558 5.00769L5.00768 27.0549C6.48533 28.5243 8.25632 29.6957 10.2241 30.481L30.4819 10.2241C29.6966 8.25633 28.5252 6.48443 27.0558 5.00769Z" fill="#CFDCE6"/>
</g>
<g style="mix-blend-mode:soft-light">
<path d="M31.1991 19.4717L19.4716 31.1992C25.294 29.8751 29.8741 25.294 31.1991 19.4717Z" fill="#CFDCE6"/>
</g>
<g style="mix-blend-mode:soft-light">
<path d="M8.34368 2.42017L2.42017 8.34368C1.76731 9.49859 1.25515 10.7436 0.913086 12.0576L12.0576 0.913086C10.7436 1.25515 9.49859 1.76731 8.34368 2.42017Z" fill="#CFDCE6"/>
</g>
<g style="mix-blend-mode:soft-light">
<path d="M25.0016 3.27356L3.27347 25.0017C3.52633 25.3594 3.79299 25.706 4.07528 26.0407L26.0397 4.07538C25.705 3.794 25.3584 3.52735 25.0007 3.27356H25.0016Z" fill="#CFDCE6"/>
</g>
<g style="mix-blend-mode:soft-light">
<path d="M16.3067 27.5864C22.5459 27.5864 27.6038 22.5285 27.6038 16.2892C27.6038 10.05 22.5459 4.99207 16.3067 4.99207C10.0674 4.99207 5.00951 10.05 5.00951 16.2892C5.00951 22.5285 10.0674 27.5864 16.3067 27.5864Z" fill="white"/>
</g>
<path d="M23.9885 23.9888C28.4003 19.577 28.4003 12.424 23.9885 8.0122C19.5767 3.60039 12.4237 3.60039 8.01192 8.0122C3.60011 12.424 3.60011 19.577 8.01192 23.9888C12.4237 28.4006 19.5767 28.4006 23.9885 23.9888Z" fill="#B1C8D9"/>
<g style="mix-blend-mode:multiply">
<path d="M5.31662 16.6138C5.31662 10.3749 10.3749 5.31668 16.6138 5.31668C19.5774 5.31668 22.2734 6.45964 24.288 8.32625C22.2246 6.09919 19.2758 4.70337 16.0005 4.70337C9.76155 4.70337 4.70331 9.76161 4.70331 16.0005C4.70331 19.2758 6.09913 22.2247 8.32619 24.2881C6.45958 22.2725 5.31662 19.5774 5.31662 16.6138Z" fill="#C3CFD9"/>
</g>
</g>
<defs>
<clipPath id="clip0_4_155">
<rect width="32" height="32" fill="white"/>
</clipPath>
</defs>
</svg>
