<svg width="69" height="16" viewBox="0 0 69 16" fill="none" xmlns="http://www.w3.org/2000/svg">
<path d="M68.4209 8.67476L61.6709 15.4248C61.4596 15.6361 61.173 15.7548 60.8741 15.7548C60.5752 15.7548 60.2885 15.6361 60.0772 15.4248C59.8658 15.2134 59.7471 14.9268 59.7471 14.6279C59.7471 14.329 59.8658 14.0424 60.0772 13.831L64.9062 9.00383H1.125C0.826631 9.00383 0.540483 8.8853 0.329505 8.67432C0.118527 8.46334 0 8.1772 0 7.87883C0 7.58046 0.118527 7.29431 0.329505 7.08333C0.540483 6.87235 0.826631 6.75383 1.125 6.75383H64.9062L60.0791 1.92383C59.8677 1.71248 59.749 1.42584 59.749 1.12695C59.749 0.828065 59.8677 0.541421 60.0791 0.330076C60.2904 0.118732 60.5771 3.14928e-09 60.8759 0C61.1748 -3.14928e-09 61.4615 0.118732 61.6728 0.330076L68.4228 7.08008C68.5277 7.18473 68.6109 7.30908 68.6676 7.44598C68.7243 7.58288 68.7534 7.72963 68.7532 7.87781C68.7531 8.02599 68.7236 8.17267 68.6666 8.30944C68.6096 8.4462 68.5261 8.57035 68.4209 8.67476Z" fill="black"/>
</svg>
