<svg width="24" height="24" viewBox="0 0 24 24" fill="none" xmlns="http://www.w3.org/2000/svg">
<path d="M20.281 9.53062L12.781 17.0306C12.7113 17.1003 12.6286 17.1557 12.5376 17.1934C12.4465 17.2312 12.3489 17.2506 12.2504 17.2506C12.1518 17.2506 12.0542 17.2312 11.9632 17.1934C11.8721 17.1557 11.7894 17.1003 11.7197 17.0306L4.21973 9.53062C4.079 9.38988 3.99994 9.19901 3.99994 8.99999C3.99994 8.80097 4.079 8.61009 4.21973 8.46936C4.36046 8.32863 4.55133 8.24957 4.75036 8.24957C4.94938 8.24957 5.14025 8.32863 5.28098 8.46936L12.2504 15.4397L19.2197 8.46936C19.2894 8.39968 19.3721 8.34441 19.4632 8.30669C19.5542 8.26898 19.6518 8.24957 19.7504 8.24957C19.8489 8.24957 19.9465 8.26898 20.0375 8.30669C20.1286 8.34441 20.2113 8.39968 20.281 8.46936C20.3507 8.53905 20.4059 8.62177 20.4437 8.71282C20.4814 8.80386 20.5008 8.90144 20.5008 8.99999C20.5008 9.09854 20.4814 9.19612 20.4437 9.28716C20.4059 9.37821 20.3507 9.46093 20.281 9.53062Z" fill="#B0B0B0"/>
</svg>
