<svg width="32" height="32" viewBox="0 0 32 32" fill="none" xmlns="http://www.w3.org/2000/svg">
<path d="M29.0613 21.0613L23.0613 27.0613C22.9219 27.2011 22.7563 27.312 22.574 27.3878C22.3917 27.4635 22.1962 27.5024 21.9988 27.5024C21.8013 27.5024 21.6059 27.4635 21.4235 27.3878C21.2412 27.312 21.0756 27.2011 20.9363 27.0613L14.9362 21.0613C14.7967 20.9217 14.686 20.7561 14.6105 20.5738C14.535 20.3915 14.4961 20.1961 14.4961 19.9988C14.4961 19.8014 14.535 19.606 14.6105 19.4237C14.686 19.2414 14.7967 19.0758 14.9362 18.9363C15.0758 18.7967 15.2414 18.686 15.4237 18.6105C15.606 18.535 15.8014 18.4961 15.9987 18.4961C16.1961 18.4961 16.3915 18.535 16.5738 18.6105C16.7561 18.686 16.9217 18.7967 17.0613 18.9363L20.5 22.375V9.5H4C3.60218 9.5 3.22064 9.34196 2.93934 9.06066C2.65804 8.77936 2.5 8.39782 2.5 8C2.5 7.60218 2.65804 7.22064 2.93934 6.93934C3.22064 6.65804 3.60218 6.5 4 6.5H22C22.3978 6.5 22.7794 6.65804 23.0607 6.93934C23.342 7.22064 23.5 7.60218 23.5 8V22.375L26.9387 18.935C27.0783 18.7955 27.2439 18.6848 27.4262 18.6093C27.6085 18.5338 27.8039 18.4949 28.0012 18.4949C28.1986 18.4949 28.394 18.5338 28.5763 18.6093C28.7586 18.6848 28.9242 18.7955 29.0637 18.935C29.2033 19.0745 29.314 19.2402 29.3895 19.4225C29.465 19.6048 29.5039 19.8002 29.5039 19.9975C29.5039 20.1948 29.465 20.3902 29.3895 20.5725C29.314 20.7548 29.2033 20.9205 29.0637 21.06L29.0613 21.0613Z" fill="#333333"/>
</svg>
