<svg width="30" height="30" viewBox="0 0 30 30" fill="none" xmlns="http://www.w3.org/2000/svg">
<g clip-path="url(#clip0_4_119)">
<path d="M29.9914 15.3414C29.8037 23.6211 22.9391 30.1812 14.6584 29.9932C6.3811 29.805 -0.179167 22.9399 0.00959577 14.6605C0.19622 6.38021 7.06072 -0.180414 15.339 0.00764124C23.6191 0.195284 30.1791 7.06136 29.9914 15.3414Z" fill="#F7931A"/>
<path d="M20.9821 11.4616C20.8346 9.44888 19.1162 8.73627 16.9317 8.49485L16.9948 5.70906L15.2991 5.67076L15.2377 8.38313C14.7919 8.37308 14.336 8.37154 13.8831 8.3703L13.9453 5.63999L12.2506 5.60149L12.1867 8.38647C11.8194 8.38563 11.4588 8.38427 11.1072 8.37653L11.1072 8.36789L8.76843 8.31403L8.72779 10.1251C8.72779 10.1251 9.98053 10.1296 9.95919 10.1522C10.646 10.168 10.8605 10.5718 10.9177 10.9174L10.8459 14.091C10.8933 14.0923 10.9551 14.0957 11.0249 14.1069C10.9684 14.1057 10.9079 14.1039 10.8457 14.103L10.7444 18.5489C10.7094 18.7644 10.5745 19.1062 10.0946 19.0961C10.1159 19.1158 8.86198 19.0678 8.86198 19.0678L8.47912 21.0853L10.6858 21.1352C11.0965 21.145 11.5004 21.1612 11.897 21.1727L11.8338 23.9902L13.5276 24.0289L13.5908 21.2412C14.0557 21.2614 14.5057 21.2753 14.9451 21.2848L14.8814 24.0597L16.5771 24.098L16.6414 21.2855C19.4959 21.1866 21.5075 20.5137 21.816 17.8422C22.065 15.6911 21.0728 14.7062 19.4633 14.2809C20.4578 13.8026 21.0925 12.9345 20.9821 11.4616ZM18.473 17.4323C18.4262 19.5379 14.8264 19.2166 13.6772 19.1916L13.7623 15.4586C14.9118 15.4849 18.523 15.2362 18.473 17.4323ZM17.8039 12.1476C17.7599 14.0632 14.7582 13.7715 13.801 13.7498L13.8779 10.3641C14.8352 10.3858 17.849 10.1496 17.8039 12.1476Z" fill="white"/>
</g>
<rect x="0.5" y="0.5" width="29" height="29" rx="14.5" stroke="#F4F4F4"/>
<defs>
<clipPath id="clip0_4_119">
<rect width="30" height="30" rx="15" fill="white"/>
</clipPath>
</defs>
</svg>
