<svg width="30" height="30" viewBox="0 0 30 30" fill="none" xmlns="http://www.w3.org/2000/svg">
<g clip-path="url(#clip0_4_107)">
<path fill-rule="evenodd" clip-rule="evenodd" d="M15 6.10352e-05C23.2849 6.10352e-05 30 6.71521 30 15.0001C30 23.2849 23.2849 30.0001 15 30.0001C6.71514 30.0001 0 23.2849 0 15.0001C0 6.71521 6.71514 6.10352e-05 15 6.10352e-05Z" fill="#F0B90B"/>
<path d="M8.24399 15L8.25481 18.9664L11.625 20.9495V23.2716L6.28245 20.1382V13.8402L8.24399 15ZM8.24399 11.0337V13.345L6.28125 12.1839V9.87261L8.24399 8.71155L10.2163 9.87261L8.24399 11.0337ZM13.0325 9.87261L14.9952 8.71155L16.9675 9.87261L14.9952 11.0337L13.0325 9.87261Z" fill="white"/>
<path d="M9.66223 18.1442V15.8221L11.625 16.9832V19.2945L9.66223 18.1442ZM13.0324 21.7813L14.9952 22.9423L16.9675 21.7813V24.0926L14.9952 25.2536L13.0324 24.0926V21.7813ZM19.7824 9.87261L21.7452 8.71155L23.7175 9.87261V12.1839L21.7452 13.345V11.0337L19.7824 9.87261ZM21.7452 18.9664L21.756 15L23.7187 13.839V20.137L18.3762 23.2704V20.9483L21.7452 18.9664Z" fill="white"/>
<path d="M20.3377 18.1443L18.375 19.2945V16.9832L20.3377 15.8221V18.1443Z" fill="white"/>
<path d="M20.3377 11.8558L20.3485 14.178L16.9687 16.1611V20.1371L15.006 21.2873L13.0432 20.1371V16.1611L9.66343 14.178V11.8558L11.6346 10.6948L14.994 12.6876L18.3738 10.6948L20.3461 11.8558H20.3377ZM9.66223 7.89069L14.9952 4.74646L20.3377 7.89069L18.375 9.05175L14.9952 7.05896L11.625 9.05175L9.66223 7.89069Z" fill="white"/>
</g>
<rect x="0.5" y="0.5" width="29" height="29" rx="14.5" stroke="#F4F4F4"/>
<defs>
<clipPath id="clip0_4_107">
<rect width="30" height="30" rx="15" fill="white"/>
</clipPath>
</defs>
</svg>
