<svg width="30" height="30" viewBox="0 0 30 30" fill="none" xmlns="http://www.w3.org/2000/svg">
<g clip-path="url(#clip0_4_49)">
<mask id="mask0_4_49" style="mask-type:luminance" maskUnits="userSpaceOnUse" x="0" y="0" width="30" height="30">
<path d="M15 30C23.2843 30 30 23.2843 30 15C30 6.71573 23.2843 0 15 0C6.71573 0 0 6.71573 0 15C0 23.2843 6.71573 30 15 30Z" fill="white"/>
</mask>
<g mask="url(#mask0_4_49)">
<path d="M0 0L0.46875 1.28906L0 2.63672V3.98438L1.875 7.14844L0 10.3125V12.1875L1.875 15L0 17.8125V19.6875L1.875 22.8516L0 26.0156V30L1.28906 29.5312L2.63672 30H3.98438L7.14844 28.125L10.3125 30H12.1875L15 28.125L17.8125 30H19.6875L22.8516 28.125L26.0156 30H30L29.5312 28.7109L30 27.3633V26.0156L28.125 22.8516L30 19.6875V17.8125L28.125 15L30 12.1875V10.3125L28.125 7.14844L30 3.98438V0L28.7109 0.46875L27.3633 0H26.0156L22.8516 1.875L19.6875 0H17.8125L15 1.875L12.1875 0H10.3125L7.14844 1.875L3.98438 0H0Z" fill="#EEEEEE"/>
<path d="M19.6875 0V6.32812L26.0156 0H19.6875ZM30 3.98438L23.6719 10.3125H30V3.98438ZM0 10.3125H6.32812L0 3.98438V10.3125ZM3.98438 0L10.3125 6.32812V0H3.98438ZM10.3125 30V23.6719L3.98438 30H10.3125ZM0 26.0156L6.32812 19.6875H0V26.0156ZM30 19.6875H23.6719L30 26.0156V19.6875ZM26.0156 30L19.6875 23.6719V30H26.0156Z" fill="#0052B4"/>
<path d="M0 0V2.63672L7.67578 10.3125H10.3125L0 0ZM12.1875 0V12.1875H0V17.8125H12.1875V30H17.8125V17.8125H30V12.1875H17.8125V0H12.1875ZM27.3633 0L19.6875 7.67578V10.3125L30 0H27.3633ZM10.3125 19.6875L0 30H2.63672L10.3125 22.3242V19.6875ZM19.6875 19.6875L30 30V27.3633L22.3242 19.6875H19.6875Z" fill="#D80027"/>
</g>
</g>
<rect x="0.5" y="0.5" width="29" height="29" rx="14.5" stroke="#F4F4F4"/>
<defs>
<clipPath id="clip0_4_49">
<rect width="30" height="30" rx="15" fill="white"/>
</clipPath>
</defs>
</svg>
